<?xml version="1.0" encoding="utf-8"?>
<!-- Generator: Adobe Illustrator 18.1.1, SVG Export Plug-In . SVG Version: 6.00 Build 0)  -->
<svg version="1.1" xmlns="http://www.w3.org/2000/svg" xmlns:xlink="http://www.w3.org/1999/xlink" x="0px" y="0px"
	 viewBox="0 0 300.1 146.8" enable-background="new 0 0 300.1 146.8" xml:space="preserve">
<g id="Ebene_2" opacity="0.15">
</g>
<g id="Ebene_1">
	<g>
		<polygon fill="#222222" points="174.5,1.1 109.9,112.2 126,145.7 190.7,34.6 		"/>
		<polygon fill="#222222" points="8,1.1 4,7.9 27.4,56.9 31.4,50 		"/>
		<polygon fill="#222222" points="138.5,56.9 142.5,50 119,1.1 115.1,7.9 88.5,53.3 63.5,1.1 59.5,7.9 59.6,8 29,60.2 45.2,93.7 
			75.7,41.6 84.6,60.2 84.6,60.2 100.7,93.7 131.2,41.5 		"/>
		<polygon fill="#222222" points="285.5,1.1 255,53.3 246.1,34.7 246.1,34.6 230,1.1 199.5,53.3 192.3,38.2 188.3,45.1 195.6,60.1 
			211.6,93.7 242.1,41.5 251,60.1 251,60.2 267.1,93.7 301.6,34.6 		"/>
	</g>
</g>
</svg>
